<?xml version="1.0" encoding="UTF-8"?><svg id="_レイヤー_1" xmlns="http://www.w3.org/2000/svg" viewBox="0 0 20 20"><defs><style>.cls-1{stroke-width:0px;}</style></defs><path class="cls-1" d="m14.81,18.3c-.39.38-.9.59-1.44.59-.29,0-.57-.06-.83-.19-.27-.11-.51-.29-.69-.51-.12-.14-.26-.25-.43-.32-.16-.08-.34-.12-.52-.11h-1.86c-.18-.01-.36.03-.52.11-.17.07-.31.18-.43.32v.13l-.11.08-.15.12-.19.12s-.09.04-.14.06l-.22.08-.29.06c-.14.01-.29.01-.43,0-.53,0-1.04-.22-1.42-.6s-.6-.89-.6-1.43c-.01-.14-.01-.27,0-.41v-.17c.02-.07.04-.13.07-.2l.08-.12.12-.21.18-.16.1-.12.06-.05c.16-.13.29-.28.39-.45.07-.16.11-.34.11-.52v-1.88c0-.17-.01-.33-.07-.49-.08-.16-.19-.3-.32-.42-.22-.19-.4-.43-.53-.69-.13-.27-.2-.56-.2-.85-.05-1.1.81-2.04,1.91-2.08.58-.02,1.15.21,1.55.63.37.38.59.88.6,1.41,0,.29-.07.58-.19.85-.13.26-.31.5-.53.69-.13.12-.24.26-.32.42-.07.16-.11.33-.11.51v1.92c0,.18.04.36.11.52.08.16.19.3.32.42.04.03.08.07.11.12l.11.1c.11.14.26.25.43.31.16.08.34.12.52.11h1.86c.18.01.36-.03.52-.11.17-.07.31-.17.43-.31.18-.23.42-.41.69-.52.26-.12.54-.19.83-.19.54,0,1.06.22,1.44.6.78.78.79,2.04.01,2.83h-.01s0,0,0,0Zm-.45-10.2c.08.16.19.29.32.41.22.2.4.43.53.7.14.26.23.54.25.84,0,.54-.21,1.05-.59,1.43-.77.79-2.04.81-2.83.04-.01-.01-.03-.03-.04-.04-.39-.38-.6-.91-.59-1.45,0-.29.06-.58.18-.84.13-.27.31-.5.53-.7.13-.12.24-.25.32-.41.07-.16.11-.34.11-.52v-1.9c0-.18-.04-.36-.11-.52-.08-.16-.19-.29-.32-.41-.22-.2-.4-.43-.53-.7-.12-.26-.19-.55-.18-.84,0-.54.2-1.05.58-1.43.75-.81,2.01-.87,2.83-.12.44.41.68.99.64,1.59,0,.29-.06.58-.19.85-.13.26-.31.5-.53.69-.13.12-.23.26-.31.42s-.12.33-.11.51v1.88c-.03.17-.01.35.04.52h0Z"/></svg>